<svg id="Icons" version="1.1" viewBox="0 0 32 32" xml:space="preserve" xmlns="http://www.w3.org/2000/svg" enable-background="new 0 0 32 32"><path d="m28.2 6.8-2.9-2.9c-1.2-1.2-3.2-1.2-4.3 0l-2.3 2.3 7.3 7.3 2.3-2.3c1.1-1.3 1.1-3.2-.1-4.4zM17.2 7.6 4.8 20c-.1.1-.2.3-.3.5L3 27.8c-.1.3 0 .7.3.9.2.2.4.3.7.3h.2l7.3-1.5c.2 0 .4-.1.5-.3l12.4-12.4-7.2-7.2zm-6.6 15.2c-.2.2-.5.3-.7.3s-.5-.1-.7-.3c-.4-.4-.4-1 0-1.4l8.8-8.8c.4-.4 1-.4 1.4 0s.4 1 0 1.4l-8.8 8.8z" fill="#61d678" class="fill-000000"></path></svg>